<svg width="50" height="50" viewBox="0 0 50 50" fill="none" xmlns="http://www.w3.org/2000/svg">
<g filter="url(#filter0_di_381_618)">
<circle cx="24" cy="24" r="14.5" transform="rotate(90 24 24)" stroke="white" shape-rendering="crispEdges"/>
</g>
<path d="M23.4697 27.7804C23.7626 28.0733 24.2374 28.0733 24.5303 27.7804L29.3033 23.0075C29.5962 22.7146 29.5962 22.2397 29.3033 21.9468C29.0104 21.6539 28.5355 21.6539 28.2426 21.9468L24 26.1894L19.7574 21.9468C19.4645 21.6539 18.9896 21.6539 18.6967 21.9468C18.4038 22.2397 18.4038 22.7146 18.6967 23.0075L23.4697 27.7804ZM23.25 27.25L23.25 27.2501L24.75 27.2501L24.75 27.25L23.25 27.25Z" fill="white"/>
<defs>
<filter id="filter0_di_381_618" x="0" y="0" width="50" height="50" filterUnits="userSpaceOnUse" color-interpolation-filters="sRGB">
<feFlood flood-opacity="0" result="BackgroundImageFix"/>
<feColorMatrix in="SourceAlpha" type="matrix" values="0 0 0 0 0 0 0 0 0 0 0 0 0 0 0 0 0 0 127 0" result="hardAlpha"/>
<feOffset dx="1" dy="1"/>
<feGaussianBlur stdDeviation="5"/>
<feComposite in2="hardAlpha" operator="out"/>
<feColorMatrix type="matrix" values="0 0 0 0 1 0 0 0 0 1 0 0 0 0 1 0 0 0 0.5 0"/>
<feBlend mode="normal" in2="BackgroundImageFix" result="effect1_dropShadow_381_618"/>
<feBlend mode="normal" in="SourceGraphic" in2="effect1_dropShadow_381_618" result="shape"/>
<feColorMatrix in="SourceAlpha" type="matrix" values="0 0 0 0 0 0 0 0 0 0 0 0 0 0 0 0 0 0 127 0" result="hardAlpha"/>
<feOffset dx="4" dy="4"/>
<feGaussianBlur stdDeviation="3"/>
<feComposite in2="hardAlpha" operator="arithmetic" k2="-1" k3="1"/>
<feColorMatrix type="matrix" values="0 0 0 0 1 0 0 0 0 1 0 0 0 0 1 0 0 0 0.3 0"/>
<feBlend mode="normal" in2="shape" result="effect2_innerShadow_381_618"/>
</filter>
</defs>
</svg>
