<svg width="70" height="70" viewBox="0 0 70 70" fill="none" xmlns="http://www.w3.org/2000/svg">
<g filter="url(#filter0_bdi_439_175)">
<circle cx="33" cy="33" r="25" transform="rotate(-180 33 33)" fill="white" fill-opacity="0.2" shape-rendering="crispEdges"/>
<circle cx="33" cy="33" r="24.5" transform="rotate(-180 33 33)" stroke="white" shape-rendering="crispEdges"/>
</g>
<path d="M29.2928 32.2929C28.9023 32.6834 28.9023 33.3166 29.2928 33.7071L35.6568 40.0711C36.0473 40.4616 36.6804 40.4616 37.071 40.0711C37.4615 39.6805 37.4615 39.0474 37.071 38.6569L31.4141 33L37.071 27.3431C37.4615 26.9526 37.4615 26.3195 37.071 25.9289C36.6804 25.5384 36.0473 25.5384 35.6568 25.9289L29.2928 32.2929ZM30 32L29.9999 32L29.9999 34L30 34L30 32Z" fill="white"/>
<defs>
<filter id="filter0_bdi_439_175" x="0" y="0" width="70" height="70" filterUnits="userSpaceOnUse" color-interpolation-filters="sRGB">
<feFlood flood-opacity="0" result="BackgroundImageFix"/>
<feGaussianBlur in="BackgroundImageFix" stdDeviation="2"/>
<feComposite in2="SourceAlpha" operator="in" result="effect1_backgroundBlur_439_175"/>
<feColorMatrix in="SourceAlpha" type="matrix" values="0 0 0 0 0 0 0 0 0 0 0 0 0 0 0 0 0 0 127 0" result="hardAlpha"/>
<feOffset dx="2" dy="2"/>
<feGaussianBlur stdDeviation="5"/>
<feComposite in2="hardAlpha" operator="out"/>
<feColorMatrix type="matrix" values="0 0 0 0 0 0 0 0 0 0 0 0 0 0 0 0 0 0 0.5 0"/>
<feBlend mode="normal" in2="effect1_backgroundBlur_439_175" result="effect2_dropShadow_439_175"/>
<feBlend mode="normal" in="SourceGraphic" in2="effect2_dropShadow_439_175" result="shape"/>
<feColorMatrix in="SourceAlpha" type="matrix" values="0 0 0 0 0 0 0 0 0 0 0 0 0 0 0 0 0 0 127 0" result="hardAlpha"/>
<feOffset dx="3.10909" dy="3.10909"/>
<feGaussianBlur stdDeviation="2.33182"/>
<feComposite in2="hardAlpha" operator="arithmetic" k2="-1" k3="1"/>
<feColorMatrix type="matrix" values="0 0 0 0 1 0 0 0 0 1 0 0 0 0 1 0 0 0 0.3 0"/>
<feBlend mode="normal" in2="shape" result="effect3_innerShadow_439_175"/>
</filter>
</defs>
</svg>
