<svg width="39" height="33" viewBox="0 0 39 33" fill="none" xmlns="http://www.w3.org/2000/svg">
<path d="M35.1473 0.68687C30.0824 2.80238 8.35761 11.8727 2.35462 14.3458C-1.66947 15.9299 0.683995 17.4138 0.683995 17.4138C0.683995 17.4138 4.12138 18.6002 7.06486 19.4925C10.0084 20.3848 11.5795 19.3922 11.5795 19.3922L25.4219 9.98776C30.331 6.62233 29.1543 9.39287 27.9742 10.5826C25.4219 13.156 21.1989 17.2132 17.6654 20.4818C16.0942 21.8687 16.8798 23.0551 17.5693 23.65C20.1216 25.829 27.0925 30.2839 27.4836 30.578C29.5587 32.0586 33.6391 34.1908 34.259 29.6857L36.7119 14.1452C37.4975 8.89825 38.2831 4.04896 38.3825 2.66201C38.6775 -0.703417 35.144 0.683528 35.144 0.683528L35.1473 0.68687Z" fill="white"/>
</svg>
