<svg width="36" height="36" viewBox="0 0 36 36" fill="none" xmlns="http://www.w3.org/2000/svg">
<path fill-rule="evenodd" clip-rule="evenodd" d="M35.7999 17.3474C35.7999 26.8139 28.0637 34.4936 18.5205 34.4936C15.4914 34.4936 12.6438 33.7192 10.1672 32.3599L0.599854 35.4012L3.71772 26.2009C2.14467 23.6154 1.24117 20.5863 1.24117 17.3474C1.24117 7.87685 8.97735 0.201172 18.5205 0.201172C28.0637 0.201172 35.7999 7.87685 35.7999 17.3474ZM18.5205 2.93182C10.5101 2.93182 3.99199 9.39746 3.99199 17.3474C3.99199 20.5016 5.02052 23.4218 6.75894 25.7975L4.94389 31.1499L10.5262 29.3752C12.8212 30.8797 15.568 31.759 18.5205 31.759C26.531 31.759 33.045 25.2933 33.045 17.3434C33.045 9.39343 26.5269 2.92779 18.5205 2.92779V2.93182ZM27.2449 21.2962C27.136 21.1187 26.8536 21.0138 26.4342 20.8041C26.0106 20.5943 23.9253 19.5779 23.5381 19.4367C23.1509 19.2956 22.8645 19.227 22.5862 19.6465C22.3039 20.066 21.4932 21.0138 21.2431 21.2962C20.9971 21.5785 20.751 21.6108 20.3275 21.401C19.904 21.1913 18.5366 20.7476 16.9192 19.3157C15.6608 18.1985 14.8097 16.8271 14.5637 16.4036C14.3176 15.9841 14.5395 15.7582 14.7492 15.5485C14.9388 15.3589 15.1727 15.0564 15.3865 14.8144C15.6003 14.5684 15.6689 14.3909 15.81 14.1126C15.9512 13.8302 15.8826 13.5882 15.7737 13.3785C15.6689 13.1687 14.8218 11.0996 14.4669 10.2566C14.116 9.41763 13.761 9.44989 13.515 9.44989C13.2689 9.44989 12.8132 9.5225 12.8132 9.5225C12.8132 9.5225 11.9661 9.62737 11.5749 10.0468C11.1877 10.4663 10.0946 11.4828 10.0946 13.5519C10.0946 15.6211 11.6112 17.6177 11.8209 17.896C12.0347 18.1783 14.7492 22.5586 19.057 24.2406C23.3647 25.9225 23.3647 25.3619 24.1391 25.2893C24.9135 25.2207 26.6439 24.2729 26.9988 23.2927C27.3538 22.3126 27.3538 21.4696 27.2489 21.2962H27.2449Z" fill="white"/>
</svg>
